<svg viewBox="0 0 1080 1080" fill="none" xmlns="http://www.w3.org/2000/svg">      <defs>  <filter id="filter" x="-20%" y="-20%" width="140%" height="140%" filterUnits="objectBoundingBox" primitiveUnits="userSpaceOnUse" color-interpolation-filters="linearRGB">    <feMorphology operator="dilate" radius="20 20" in="SourceAlpha" result="morphology"/>    <feFlood flood-color="#ffffff" flood-opacity="1" result="flood"/>    <feComposite in="flood" in2="morphology" operator="in" result="composite"/>    <feMerge result="merge">          <feMergeNode in="composite" result="mergeNode"/>      <feMergeNode in="SourceGraphic" result="mergeNode1"/>      </feMerge>  </filter></defs>      <g id="notion-avatar" filter="url(#filter)">        <g id="notion-avatar-face" fill="#ffffff">      <!--?xml version="1.0" encoding="UTF-8"?-->    <title>Face/ 7</title>    <g id="Face/-7" stroke="none" stroke-width="1" fill-rule="evenodd" stroke-linecap="round" stroke-linejoin="round">        <path d="M532,379 C664.54834,379 772,486.45166 772,619 C772,751.54834 764.54834,919 572,919 C415.13263,919 351.668898,801.612202 313.752775,718.980575 L313.322946,718.989282 L312,719 C267.81722,719 232,683.18278 232,639 C232,599.134956 261.158843,566.080325 299.312086,560.00055 C325.599297,455.979213 419.809919,379 532,379 Z M295.858895,624.545187 L304.141105,655.454813" id="Path" stroke="#000000" stroke-width="24"/>    </g>    </g><g id="notion-avatar-nose">      <!--?xml version="1.0" encoding="UTF-8"?-->    <title>Nose/ 7</title>    <g id="Nose/-7" stroke="none" stroke-width="1" fill="none" fill-rule="evenodd" stroke-linecap="round" stroke-linejoin="round">        <path d="M649,600 C669,606.666667 679,620 679,640 C679,660 669,673.333333 649,680" id="Path" stroke="#000000" stroke-width="16"/>    </g>    </g><g id="notion-avatar-mouth">      <!--?xml version="1.0" encoding="UTF-8"?-->    <title>Mouth/ 1</title>    <g id="Mouth/-1" stroke="none" stroke-width="1" fill="none" fill-rule="evenodd" stroke-linecap="round" stroke-linejoin="round">        <path d="M549,759 C575.12979,773.666667 603.12979,781 633,781 C662.87021,781 682.87021,773.666667 693,759" id="Path" stroke="#000000" stroke-width="16"/>    </g>    </g><g id="notion-avatar-eyes">      <!--?xml version="1.0" encoding="UTF-8"?-->    <title>Eyes/ 3</title>    <g id="Eyes/-3" stroke="none" stroke-width="1" fill="none" fill-rule="evenodd" stroke-linecap="round" stroke-linejoin="round">        <g id="Group" transform="translate(533.944954, 540.730159)" stroke="#000000" stroke-width="12">            <path d="M146.275229,-1.43884904e-13 C159.958467,9.35202544 170.38232,14.8216846 177.546789,16.4089776 C184.711258,17.9962705 196.232359,17.3885306 212.110092,14.5857578" id="Path" transform="translate(179.192661, 8.634921) scale(-1, 1) translate(-179.192661, -8.634921) "/>            <path d="M6.39488462e-14,-1.43884904e-13 C13.6832373,9.35202544 24.1070905,14.8216846 31.2715596,16.4089776 C38.4360288,17.9962705 49.9571297,17.3885306 65.8348624,14.5857578" id="Path"/>        </g>    </g>    </g><g id="notion-avatar-eyebrows">      <!--?xml version="1.0" encoding="UTF-8"?-->    <title>Eyebrows/ 6</title>    <g id="Eyebrows/-6" stroke="none" stroke-width="1" fill="none" fill-rule="evenodd" stroke-linecap="round" stroke-linejoin="round">        <path d="M620,495.140162 C589.850248,491.823271 565.234864,491.823271 546.153846,495.140162 C527.072829,498.457053 511.688213,505.410333 500,516 C517.257672,497.488903 532.642287,487.058984 546.153846,484.710243 C559.665405,482.361502 584.280789,485.838142 620,495.140162 Z M658,495.140162 C693.719211,485.838142 718.334595,482.361502 731.846154,484.710243 C745.357713,487.058984 760.742328,497.488903 778,516 C766.311787,505.410333 750.927171,498.457053 731.846154,495.140162 C712.765136,491.823271 688.149752,491.823271 658,495.140162 Z" id="Combined-Shape" stroke="#000000" stroke-width="8" fill="#000000"/>    </g>    </g><g id="notion-avatar-glasses">      <g id="Glasses/ 12"><g id="Group"><path id="Path" fill-rule="evenodd" clip-rule="evenodd" d="M805.209 500.217C805.813 491.284 798.652 484 789.699 484H455C446.163 484 439 491.163 439 500V575.76C439 580.706 441.26 585.352 445.249 588.275C465.881 603.396 532.959 650 575.94 650C627.244 650 619.761 588.343 666.321 588.343C712.881 588.343 690.97 650 747.116 640.514C791.7 632.982 802.608 538.717 805.209 500.217Z" fill="white" stroke="black" stroke-width="12" stroke-linecap="round" stroke-linejoin="round"/><g id="Group_2"><path id="Mask" fill-rule="evenodd" clip-rule="evenodd" d="M783.642 509.995C783.893 505.509 780.3 501.847 775.807 501.847L465 501.847C460.582 501.847 457 505.428 457 509.847V561.349C457 563.759 458.047 566.008 459.946 567.493C474.566 578.927 540.245 628.47 580.546 628.47C611.607 628.47 603.397 573.489 662.087 568.491C720.777 563.492 704.644 623.472 742.954 620.14C775.033 617.35 782.169 536.288 783.642 509.995Z" fill="black"/><mask id="mask0_0_1157" style="mask-type:alpha" maskUnits="userSpaceOnUse" x="457" y="501" width="327" height="128"><path id="Mask_2" fill-rule="evenodd" clip-rule="evenodd" d="M783.642 509.995C783.893 505.509 780.3 501.847 775.807 501.847L465 501.847C460.582 501.847 457 505.428 457 509.847V561.349C457 563.759 458.047 566.008 459.946 567.493C474.566 578.927 540.245 628.47 580.546 628.47C611.607 628.47 603.397 573.489 662.087 568.491C720.777 563.492 704.644 623.472 742.954 620.14C775.033 617.35 782.169 536.288 783.642 509.995Z" fill="white"/></mask><g mask="url(#mask0_0_1157)"><path id="Path_2" d="M671.808 492.742L781.264 580.828" stroke="white" stroke-width="16" stroke-linecap="round" stroke-linejoin="round"/><path id="Path_3" d="M696.436 478.979L805.892 567.065" stroke="white" stroke-width="8" stroke-linecap="round" stroke-linejoin="round"/></g></g><path id="Path_4" fill-rule="evenodd" clip-rule="evenodd" d="M439 492.036L284 523V566.875L439 552V492.036Z" fill="black" stroke="black" stroke-width="12" stroke-linecap="round" stroke-linejoin="round"/></g></g>    </g><g id="notion-avatar-hair">      <g id="Hairstyle/ 48"><path id="Path" fill-rule="evenodd" clip-rule="evenodd" d="M328.117 564.825L366 655C366 655 385.371 570.084 403 540C424.858 502.699 480 494 480 494C480 494 477.209 483.947 476 475C474.791 466.054 476 457 476 457L362 410L492 433C492 433 563.019 419.458 616 419C647.294 418.73 693 426 693 426C693 426 678 383 592 359C506 335 397 367 346 426C295 485 290 565 290 565L328.117 564.825Z" fill="black" stroke="black" stroke-width="12" stroke-linecap="round" stroke-linejoin="round"/></g>    </g><g id="notion-avatar-accessories">      <!--?xml version="1.0" encoding="UTF-8"?-->    <title>Accessories/ 0</title>    <g id="Accessories/-0" stroke="none" stroke-width="1" fill="none" fill-rule="evenodd"/>    </g><g id="notion-avatar-details">      <!--?xml version="1.0" encoding="UTF-8"?-->    <title>Details/ 0</title>    <g id="Details/-0" stroke="none" stroke-width="1" fill="none" fill-rule="evenodd"/>    </g><g id="notion-avatar-beard">      <!--?xml version="1.0" encoding="UTF-8"?-->    <title>Beard/ 0</title>    <g id="Beard/-0" stroke="none" stroke-width="1" fill="none" fill-rule="evenodd"/>    </g><g id="notion-avatar-halloween">    <!--?xml version="1.0" encoding="UTF-8"?-->    <title>halloween/ 0</title>    <g id="halloween/-0" stroke="none" stroke-width="1" fill="none" fill-rule="evenodd"/>  </g>      </g>      </svg>